<svg id="Layer_1" width="20" data-name="Layer 1" xmlns="http://www.w3.org/2000/svg" viewBox="0 0 24 24">
    <defs>
        <style>.cls-1{fill:#626262;}</style>
    </defs>
    <title>edit</title>
    <path fill="#0000008a"
          d="M18.45,24H3.26A3.26,3.26,0,0,1,0,20.74V5.56A3.26,3.26,0,0,1,3.26,2.3h7.59a1.09,1.09,0,0,1,0,2.17H3.26A1.09,1.09,0,0,0,2.17,5.56V20.74a1.09,1.09,0,0,0,1.09,1.09H18.45a1.09,1.09,0,0,0,1.08-1.09V13.15a1.09,1.09,0,1,1,2.17,0v7.59A3.26,3.26,0,0,1,18.45,24Z"/>
    <path fill="#0000008a"
          d="M7.59,17.49a1.05,1.05,0,0,1-.76-.32,1.09,1.09,0,0,1-.29-1L7.63,11.8a1.08,1.08,0,0,1,.28-.5L18.22,1h0A3.39,3.39,0,1,1,23,5.78L12.7,16.09a1,1,0,0,1-.5.28L7.86,17.46A1.24,1.24,0,0,1,7.59,17.49Zm2.07-4.87-.57,2.29,2.29-.57,10.1-10.1a1.21,1.21,0,0,0,.35-.85,1.26,1.26,0,0,0-.35-.87,1.24,1.24,0,0,0-1.73,0Z"/>
</svg>
