<svg id="Layer_1" width="20" data-name="Layer 1" xmlns="http://www.w3.org/2000/svg" viewBox="0 0 24 24">
    <defs>
        <style>.cls-1{fill:#626262;}</style>
    </defs>
    <title>phone</title>
    <path class="cls-1"
          d="M18.44,24A18.48,18.48,0,0,1,0,5.52,5.52,5.52,0,0,1,5.51,0a5.62,5.62,0,0,1,.92.08A5.17,5.17,0,0,1,7.29.3a1.19,1.19,0,0,1,.78.9L9.71,8.4A1.17,1.17,0,0,1,9.4,9.5c-.15.17-.17.18-1.64.95a11.89,11.89,0,0,0,5.83,5.87c.78-1.49.79-1.5,1-1.66a1.21,1.21,0,0,1,1.1-.31L22.84,16a1.17,1.17,0,0,1,.86.78,5.06,5.06,0,0,1,.23.87,5.58,5.58,0,0,1,.07.91A5.52,5.52,0,0,1,18.44,24ZM5.51,2.4A3.12,3.12,0,0,0,2.4,5.52a16.07,16.07,0,0,0,16,16.08,3.14,3.14,0,0,0,3.12-3.12v-.4L16,16.8l-.35.66c-.54,1-.93,1.8-1.94,1.39a14.23,14.23,0,0,1-8.6-8.65c-.43-.94.39-1.37,1.42-1.91L7.19,8,5.9,2.4Z"
          transform="translate(0 0)"/>
</svg>
